<svg version="1.0" xmlns="http://www.w3.org/2000/svg"
 width="128" height="128" viewBox="0 0 512 512"
 preserveAspectRatio="xMidYMid meet">

<g transform="translate(0.000000,512.000000) scale(0.100000,-0.100000)"
fill="#5E35B1" stroke="none">
<path d="M2774 5102 c-60 -21 -97 -49 -134 -100 -91 -126 -55 -311 75 -388 28
-16 94 -35 186 -54 362 -74 667 -218 936 -444 461 -384 723 -943 723 -1539 0
-368 -85 -689 -265 -1002 -307 -534 -831 -893 -1460 -1002 -143 -24 -491 -24
-636 0 -312 52 -547 145 -862 340 -104 64 -207 68 -303 12 -149 -87 -178 -297
-58 -419 51 -52 205 -145 379 -231 571 -282 1205 -346 1829 -185 606 156 1165
556 1511 1080 178 270 315 605 374 912 36 193 45 291 45 503 -1 303 -42 546
-139 825 -305 874 -1070 1524 -1989 1690 -132 24 -147 24 -212 2z"/>
<path d="M1770 4815 c-105 -30 -187 -97 -233 -190 -44 -89 -1510 -3499 -1524
-3544 -17 -57 -16 -86 3 -150 18 -61 77 -132 139 -164 58 -31 193 -31 251 0
91 49 96 58 443 867 l325 755 660 3 661 3 45 24 c103 54 154 135 154 246 0
111 -51 192 -154 246 l-45 24 -541 5 -541 5 228 528 c125 291 229 531 232 533
3 3 39 -62 82 -143 42 -81 86 -156 97 -165 18 -16 46 -18 253 -18 218 0 234 1
258 20 55 44 56 42 -174 524 -235 495 -246 512 -364 567 -79 37 -175 46 -255
24z"/>
<path d="M2044 3564 c-23 -8 -60 -31 -83 -50 -159 -136 -111 -387 89 -465 28
-10 161 -14 630 -19 l595 -5 63 -34 c76 -41 135 -104 170 -179 23 -48 27 -71
27 -147 0 -82 -3 -97 -32 -156 -39 -79 -102 -140 -181 -177 l-57 -27 -730 -5
-730 -5 -53 -24 c-63 -28 -133 -103 -150 -159 -32 -106 -2 -225 73 -291 76
-66 70 -65 498 -71 l388 -5 153 -344 c85 -189 163 -353 175 -365 21 -20 32
-21 249 -24 211 -2 229 -1 259 17 64 40 60 53 -91 396 -75 170 -136 311 -136
315 0 4 35 10 79 14 403 33 745 335 825 728 20 99 20 267 0 366 -69 336 -327
608 -669 704 -79 22 -91 23 -700 25 -526 2 -626 0 -661 -13z" />
</g>
</svg>