<svg width="36" height="36" viewBox="0 0 36 36" fill="none" xmlns="http://www.w3.org/2000/svg">
<path d="M20.3175 0.833774C19.2938 0.680162 18.3377 1.3749 18.1821 2.3855C18.0265 3.39611 18.7303 4.3399 19.754 4.49351C21.8032 4.80098 23.7554 5.56178 25.4647 6.71903C27.174 7.87628 28.5961 9.40003 29.6248 11.1763C30.6534 12.9526 31.2619 14.9355 31.4048 16.9767C31.5477 19.0179 31.2213 21.0645 30.45 22.9636C29.6787 24.8628 28.4824 26.5651 26.9507 27.9435C25.4189 29.3219 23.5913 30.3406 21.6045 30.9234C19.6177 31.5062 17.5231 31.6381 15.4774 31.3092C13.4316 30.9803 11.4877 30.199 9.79098 29.0239C8.94327 28.4368 7.77396 28.6393 7.17923 29.4761C6.58451 30.3129 6.78959 31.4672 7.6373 32.0543C9.7968 33.5499 12.2709 34.5442 14.8745 34.9628C17.4782 35.3814 20.144 35.2136 22.6726 34.4718C25.2013 33.73 27.5274 32.4335 29.4769 30.6792C31.4264 28.9249 32.9489 26.7583 33.9306 24.3412C34.9123 21.9242 35.3277 19.3193 35.1459 16.7215C34.964 14.1236 34.1895 11.5999 32.8803 9.33917C31.5711 7.07843 29.7611 5.13912 27.5856 3.66625C25.4102 2.19339 22.9255 1.2251 20.3175 0.833774Z" fill="#5E35B1"/>
<path d="M13.4099 8.22831L14.3902 10.1671C14.496 10.3764 14.7126 10.5086 14.9494 10.5086H17.6407C18.0988 10.5086 18.4012 10.0382 18.2063 9.62904L15.6023 4.16303C14.6759 2.24275 11.8871 2.30131 11.0444 4.25876L0.96236 27.6764C0.557328 28.6172 1.00156 29.704 1.95458 30.1038C2.90759 30.5037 4.00851 30.0651 4.41354 29.1244L8.71507 19.1331C8.78817 19.1416 8.86255 19.146 8.93797 19.146H17.0628C18.0984 19.146 18.9378 18.3174 18.9378 17.2952C18.9378 16.2729 18.0984 15.4443 17.0628 15.4443H10.3032L13.4099 8.22831Z" fill="#5E35B1"/>
<path d="M17.9892 23.4648L20.0236 28.0319C20.1234 28.2559 20.3478 28.4005 20.5957 28.4005H23.2962C23.7465 28.4005 24.0491 27.9446 23.8692 27.5371L22.0721 23.4648C25.5195 23.4598 28.3126 20.6995 28.3126 17.2952C28.3126 13.8878 25.5145 11.1255 22.0628 11.1255H15.1879C14.1523 11.1255 13.3129 11.9542 13.3129 12.9764C13.3129 13.9986 14.1523 14.8273 15.1879 14.8273H22.0628C23.4434 14.8273 24.5627 15.9322 24.5627 17.2952C24.5627 18.6581 23.4434 19.763 22.0628 19.763H13.3129C12.2774 19.763 11.4379 20.5917 11.4379 21.6139C11.4379 22.6361 12.2774 23.4648 13.3129 23.4648H17.9892Z" fill="#5E35B1"/>
</svg>
